<mxfile host="app.diagrams.net" modified="2021-10-22T10:23:16.165Z" agent="5.0 (Windows NT 10.0; Win64; x64) AppleWebKit/537.36 (KHTML, like Gecko) Chrome/95.0.4638.54 Safari/537.36" etag="C_7JuqBhWWPVPgkRrCy-" version="15.5.8" type="github">
  <diagram id="TaznG8wma21887_8o1Ws" name="Page-1">
    <mxGraphModel dx="1210" dy="532" grid="1" gridSize="10" guides="1" tooltips="1" connect="1" arrows="1" fold="1" page="1" pageScale="1" pageWidth="850" pageHeight="1100" math="0" shadow="0">
      <root>
        <mxCell id="0" />
        <mxCell id="1" parent="0" />
        <mxCell id="HH4qCzkqOsVi2pg-7LeL-6" value="campaign" style="rounded=0;whiteSpace=wrap;html=1;container=0;" vertex="1" parent="1">
          <mxGeometry x="310" y="186" width="95" height="34" as="geometry" />
        </mxCell>
        <mxCell id="HH4qCzkqOsVi2pg-7LeL-23" value="Send Campaign" style="rounded=0;whiteSpace=wrap;html=1;container=0;" vertex="1" parent="1">
          <mxGeometry x="523.5" y="186" width="83" height="34" as="geometry" />
        </mxCell>
        <mxCell id="HH4qCzkqOsVi2pg-7LeL-28" value="Login" style="rounded=0;whiteSpace=wrap;html=1;container=0;" vertex="1" parent="1">
          <mxGeometry x="232" y="186" width="67" height="34" as="geometry" />
        </mxCell>
        <mxCell id="HH4qCzkqOsVi2pg-7LeL-36" value="Schedule Campaign" style="rounded=0;whiteSpace=wrap;html=1;container=0;" vertex="1" parent="1">
          <mxGeometry x="417" y="186" width="98" height="34" as="geometry" />
        </mxCell>
        <mxCell id="HH4qCzkqOsVi2pg-7LeL-38" value="Dashboard&lt;br&gt;Visualization" style="rounded=0;whiteSpace=wrap;html=1;container=0;" vertex="1" parent="1">
          <mxGeometry x="710" y="186" width="100" height="34" as="geometry" />
        </mxCell>
        <mxCell id="HH4qCzkqOsVi2pg-7LeL-40" value="" style="rounded=0;whiteSpace=wrap;html=1;container=0;fillColor=#BDBDBD;" vertex="1" parent="1">
          <mxGeometry x="349" y="295" width="15" height="85" as="geometry" />
        </mxCell>
        <mxCell id="HH4qCzkqOsVi2pg-7LeL-41" value="" style="endArrow=classic;html=1;rounded=0;strokeWidth=1;exitX=1;exitY=0;exitDx=0;exitDy=0;" edge="1" parent="1" source="HH4qCzkqOsVi2pg-7LeL-94">
          <mxGeometry x="94" y="143" width="50" height="50" as="geometry">
            <mxPoint x="186.5" y="257" as="sourcePoint" />
            <mxPoint x="256.5" y="257" as="targetPoint" />
          </mxGeometry>
        </mxCell>
        <mxCell id="HH4qCzkqOsVi2pg-7LeL-42" value="" style="endArrow=classic;html=1;rounded=0;strokeWidth=1;" edge="1" parent="1">
          <mxGeometry x="85" y="146" width="50" height="50" as="geometry">
            <mxPoint x="305" y="300" as="sourcePoint" />
            <mxPoint x="345" y="300" as="targetPoint" />
            <Array as="points">
              <mxPoint x="315" y="300" />
            </Array>
          </mxGeometry>
        </mxCell>
        <mxCell id="HH4qCzkqOsVi2pg-7LeL-45" value="" style="rounded=0;whiteSpace=wrap;html=1;container=0;fillColor=#BDBDBD;" vertex="1" parent="1">
          <mxGeometry x="458.5" y="295" width="15" height="90" as="geometry" />
        </mxCell>
        <mxCell id="HH4qCzkqOsVi2pg-7LeL-47" value="" style="endArrow=classic;html=1;rounded=0;strokeWidth=1;" edge="1" parent="1">
          <mxGeometry x="60" y="136" width="50" height="50" as="geometry">
            <mxPoint x="390" y="300" as="sourcePoint" />
            <mxPoint x="440" y="300" as="targetPoint" />
          </mxGeometry>
        </mxCell>
        <mxCell id="HH4qCzkqOsVi2pg-7LeL-48" value="Add&amp;nbsp; date &amp;amp; time to schedule&amp;nbsp;" style="text;html=1;strokeColor=none;fillColor=none;align=center;verticalAlign=middle;whiteSpace=wrap;rounded=0;container=0;" vertex="1" parent="1">
          <mxGeometry x="368.5" y="315" width="90" height="30" as="geometry" />
        </mxCell>
        <mxCell id="HH4qCzkqOsVi2pg-7LeL-49" value="Create&lt;br&gt;&amp;nbsp;template" style="text;html=1;strokeColor=none;fillColor=none;align=center;verticalAlign=middle;whiteSpace=wrap;rounded=0;container=0;" vertex="1" parent="1">
          <mxGeometry x="274" y="295" width="90" height="50" as="geometry" />
        </mxCell>
        <mxCell id="HH4qCzkqOsVi2pg-7LeL-52" value="" style="rounded=0;whiteSpace=wrap;html=1;container=0;fillColor=#BDBDBD;" vertex="1" parent="1">
          <mxGeometry x="752.5" y="300" width="15" height="90" as="geometry" />
        </mxCell>
        <mxCell id="HH4qCzkqOsVi2pg-7LeL-54" value="" style="endArrow=none;dashed=1;html=1;strokeWidth=1;rounded=0;exitX=0.5;exitY=0;exitDx=0;exitDy=0;entryX=0.5;entryY=1;entryDx=0;entryDy=0;" edge="1" parent="1" source="HH4qCzkqOsVi2pg-7LeL-52" target="HH4qCzkqOsVi2pg-7LeL-38">
          <mxGeometry x="60" y="136" width="50" height="50" as="geometry">
            <mxPoint x="690" y="300" as="sourcePoint" />
            <mxPoint x="707" y="240" as="targetPoint" />
          </mxGeometry>
        </mxCell>
        <mxCell id="HH4qCzkqOsVi2pg-7LeL-56" value="email &amp;amp; password&amp;nbsp;" style="text;html=1;strokeColor=none;fillColor=none;align=center;verticalAlign=middle;whiteSpace=wrap;rounded=0;container=0;" vertex="1" parent="1">
          <mxGeometry x="140" y="255" width="118" height="30" as="geometry" />
        </mxCell>
        <mxCell id="HH4qCzkqOsVi2pg-7LeL-58" value="" style="endArrow=none;dashed=1;html=1;strokeWidth=1;rounded=0;exitX=0.75;exitY=0;exitDx=0;exitDy=0;" edge="1" parent="1">
          <mxGeometry x="82" y="136" width="50" height="50" as="geometry">
            <mxPoint x="358.25" y="295" as="sourcePoint" />
            <mxPoint x="358" y="220" as="targetPoint" />
          </mxGeometry>
        </mxCell>
        <mxCell id="HH4qCzkqOsVi2pg-7LeL-59" value="" style="endArrow=none;dashed=1;html=1;strokeWidth=1;rounded=0;exitX=0.5;exitY=0;exitDx=0;exitDy=0;" edge="1" parent="1" source="HH4qCzkqOsVi2pg-7LeL-45">
          <mxGeometry x="60" y="136" width="50" height="50" as="geometry">
            <mxPoint x="460" y="290" as="sourcePoint" />
            <mxPoint x="465" y="218" as="targetPoint" />
          </mxGeometry>
        </mxCell>
        <mxCell id="HH4qCzkqOsVi2pg-7LeL-62" value="login success" style="text;html=1;strokeColor=none;fillColor=none;align=center;verticalAlign=middle;whiteSpace=wrap;rounded=0;container=0;" vertex="1" parent="1">
          <mxGeometry x="154" y="310" width="90" height="30" as="geometry" />
        </mxCell>
        <mxCell id="HH4qCzkqOsVi2pg-7LeL-71" value="campaign &lt;br&gt;URL" style="rounded=0;whiteSpace=wrap;html=1;container=0;" vertex="1" parent="1">
          <mxGeometry x="620" y="186" width="80" height="34" as="geometry" />
        </mxCell>
        <mxCell id="HH4qCzkqOsVi2pg-7LeL-51" value="Manually send campaign" style="text;html=1;strokeColor=none;fillColor=none;align=center;verticalAlign=middle;whiteSpace=wrap;rounded=0;container=0;" vertex="1" parent="1">
          <mxGeometry x="490" y="305" width="60" height="30" as="geometry" />
        </mxCell>
        <mxCell id="HH4qCzkqOsVi2pg-7LeL-39" value="" style="rounded=0;whiteSpace=wrap;html=1;container=0;fillColor=#BDBDBD;" vertex="1" parent="1">
          <mxGeometry x="255" y="260" width="15" height="50" as="geometry" />
        </mxCell>
        <mxCell id="HH4qCzkqOsVi2pg-7LeL-44" value="" style="endArrow=classic;html=1;rounded=1;strokeWidth=1;dashed=1;" edge="1" parent="1">
          <mxGeometry x="263.5" y="265" width="50" height="50" as="geometry">
            <mxPoint x="265.5" y="295" as="sourcePoint" />
            <mxPoint x="140" y="313" as="targetPoint" />
            <Array as="points">
              <mxPoint x="280.5" y="295" />
              <mxPoint x="280.5" y="314" />
            </Array>
          </mxGeometry>
        </mxCell>
        <mxCell id="HH4qCzkqOsVi2pg-7LeL-81" value="" style="rounded=0;whiteSpace=wrap;html=1;container=0;fillColor=#BDBDBD;" vertex="1" parent="1">
          <mxGeometry x="557.5" y="295" width="15" height="90" as="geometry" />
        </mxCell>
        <mxCell id="HH4qCzkqOsVi2pg-7LeL-86" value="" style="rounded=0;whiteSpace=wrap;html=1;container=0;fillColor=#BDBDBD;" vertex="1" parent="1">
          <mxGeometry x="652.5" y="410" width="15" height="60" as="geometry" />
        </mxCell>
        <mxCell id="HH4qCzkqOsVi2pg-7LeL-90" value="" style="endArrow=classic;html=1;rounded=1;strokeWidth=1;dashed=1;" edge="1" parent="1">
          <mxGeometry x="570" y="338" width="50" height="50" as="geometry">
            <mxPoint x="572" y="368" as="sourcePoint" />
            <mxPoint x="500" y="386" as="targetPoint" />
            <Array as="points">
              <mxPoint x="587" y="368" />
              <mxPoint x="587" y="387" />
            </Array>
          </mxGeometry>
        </mxCell>
        <mxCell id="HH4qCzkqOsVi2pg-7LeL-93" value="" style="rounded=0;whiteSpace=wrap;html=1;container=0;fillColor=#BDBDBD;" vertex="1" parent="1">
          <mxGeometry x="50" y="255" width="15" height="285" as="geometry" />
        </mxCell>
        <mxCell id="HH4qCzkqOsVi2pg-7LeL-94" value="" style="rounded=0;whiteSpace=wrap;html=1;container=0;fillColor=#BDBDBD;" vertex="1" parent="1">
          <mxGeometry x="117.5" y="256" width="15" height="284" as="geometry" />
        </mxCell>
        <mxCell id="HH4qCzkqOsVi2pg-7LeL-95" value="" style="endArrow=none;dashed=1;html=1;strokeWidth=1;rounded=1;" edge="1" parent="1">
          <mxGeometry width="50" height="50" relative="1" as="geometry">
            <mxPoint x="260" y="550" as="sourcePoint" />
            <mxPoint x="260" y="320" as="targetPoint" />
          </mxGeometry>
        </mxCell>
        <mxCell id="HH4qCzkqOsVi2pg-7LeL-99" value="" style="rounded=0;whiteSpace=wrap;html=1;container=0;fillColor=#BDBDBD;" vertex="1" parent="1">
          <mxGeometry x="752" y="480" width="15" height="60" as="geometry" />
        </mxCell>
        <mxCell id="HH4qCzkqOsVi2pg-7LeL-100" style="edgeStyle=orthogonalEdgeStyle;rounded=1;orthogonalLoop=1;jettySize=auto;html=1;exitX=0.5;exitY=1;exitDx=0;exitDy=0;dashed=1;strokeWidth=1;" edge="1" parent="1" source="HH4qCzkqOsVi2pg-7LeL-56" target="HH4qCzkqOsVi2pg-7LeL-56">
          <mxGeometry relative="1" as="geometry" />
        </mxCell>
        <mxCell id="HH4qCzkqOsVi2pg-7LeL-101" value="" style="endArrow=none;dashed=1;html=1;strokeWidth=1;rounded=0;" edge="1" parent="1">
          <mxGeometry x="80" y="296" width="50" height="50" as="geometry">
            <mxPoint x="356" y="550" as="sourcePoint" />
            <mxPoint x="356" y="380" as="targetPoint" />
          </mxGeometry>
        </mxCell>
        <mxCell id="HH4qCzkqOsVi2pg-7LeL-102" value="" style="endArrow=none;dashed=1;html=1;strokeWidth=1;rounded=0;" edge="1" parent="1">
          <mxGeometry x="189.5" y="296" width="50" height="50" as="geometry">
            <mxPoint x="466" y="550" as="sourcePoint" />
            <mxPoint x="465.5" y="380" as="targetPoint" />
          </mxGeometry>
        </mxCell>
        <mxCell id="HH4qCzkqOsVi2pg-7LeL-103" value="" style="endArrow=none;dashed=1;html=1;strokeWidth=1;rounded=0;" edge="1" parent="1">
          <mxGeometry x="288.5" y="296" width="50" height="50" as="geometry">
            <mxPoint x="565" y="550" as="sourcePoint" />
            <mxPoint x="564.5" y="380" as="targetPoint" />
          </mxGeometry>
        </mxCell>
        <mxCell id="HH4qCzkqOsVi2pg-7LeL-104" value="" style="endArrow=none;dashed=1;html=1;strokeWidth=1;rounded=0;exitX=0.5;exitY=0;exitDx=0;exitDy=0;" edge="1" parent="1" source="HH4qCzkqOsVi2pg-7LeL-86">
          <mxGeometry x="383.5" y="136" width="50" height="50" as="geometry">
            <mxPoint x="660" y="300" as="sourcePoint" />
            <mxPoint x="659.5" y="220" as="targetPoint" />
          </mxGeometry>
        </mxCell>
        <mxCell id="HH4qCzkqOsVi2pg-7LeL-105" value="" style="endArrow=none;dashed=1;html=1;strokeWidth=1;rounded=0;" edge="1" parent="1">
          <mxGeometry x="393.5" y="146" width="50" height="50" as="geometry">
            <mxPoint x="760" y="474" as="sourcePoint" />
            <mxPoint x="760" y="390" as="targetPoint" />
          </mxGeometry>
        </mxCell>
        <mxCell id="HH4qCzkqOsVi2pg-7LeL-106" value="" style="endArrow=none;dashed=1;html=1;dashPattern=1 3;strokeWidth=2;rounded=1;entryX=0.5;entryY=1;entryDx=0;entryDy=0;" edge="1" parent="1" target="HH4qCzkqOsVi2pg-7LeL-86">
          <mxGeometry width="50" height="50" relative="1" as="geometry">
            <mxPoint x="660" y="550" as="sourcePoint" />
            <mxPoint x="710" y="480" as="targetPoint" />
          </mxGeometry>
        </mxCell>
        <mxCell id="HH4qCzkqOsVi2pg-7LeL-107" value="" style="endArrow=classic;html=1;rounded=1;strokeWidth=1;entryX=0;entryY=0;entryDx=0;entryDy=0;" edge="1" parent="1" target="HH4qCzkqOsVi2pg-7LeL-86">
          <mxGeometry width="50" height="50" relative="1" as="geometry">
            <mxPoint x="70" y="410" as="sourcePoint" />
            <mxPoint x="240" y="410" as="targetPoint" />
          </mxGeometry>
        </mxCell>
        <mxCell id="HH4qCzkqOsVi2pg-7LeL-108" value="Open campaign" style="text;html=1;strokeColor=none;fillColor=none;align=center;verticalAlign=middle;whiteSpace=wrap;rounded=0;" vertex="1" parent="1">
          <mxGeometry x="580" y="420" width="60" height="30" as="geometry" />
        </mxCell>
        <mxCell id="HH4qCzkqOsVi2pg-7LeL-110" value="" style="endArrow=classic;html=1;rounded=1;strokeWidth=1;dashed=1;" edge="1" parent="1">
          <mxGeometry x="670" y="420" width="50" height="50" as="geometry">
            <mxPoint x="672" y="450" as="sourcePoint" />
            <mxPoint x="600" y="468" as="targetPoint" />
            <Array as="points">
              <mxPoint x="687" y="450" />
              <mxPoint x="687" y="469" />
            </Array>
          </mxGeometry>
        </mxCell>
        <mxCell id="HH4qCzkqOsVi2pg-7LeL-112" value="Send success" style="text;html=1;strokeColor=none;fillColor=none;align=center;verticalAlign=middle;whiteSpace=wrap;rounded=0;" vertex="1" parent="1">
          <mxGeometry x="480" y="385" width="80" height="30" as="geometry" />
        </mxCell>
        <mxCell id="HH4qCzkqOsVi2pg-7LeL-113" value="exploit search &amp;amp; target user log" style="text;html=1;strokeColor=none;fillColor=none;align=center;verticalAlign=middle;whiteSpace=wrap;rounded=0;" vertex="1" parent="1">
          <mxGeometry x="580" y="490" width="73" height="30" as="geometry" />
        </mxCell>
        <mxCell id="HH4qCzkqOsVi2pg-7LeL-114" value="" style="endArrow=none;dashed=1;html=1;dashPattern=1 3;strokeWidth=2;rounded=1;entryX=0.5;entryY=1;entryDx=0;entryDy=0;" edge="1" parent="1" target="HH4qCzkqOsVi2pg-7LeL-99">
          <mxGeometry width="50" height="50" relative="1" as="geometry">
            <mxPoint x="760" y="550" as="sourcePoint" />
            <mxPoint x="800" y="540" as="targetPoint" />
          </mxGeometry>
        </mxCell>
        <mxCell id="HH4qCzkqOsVi2pg-7LeL-115" value="" style="endArrow=classic;html=1;rounded=1;strokeWidth=1;entryX=0;entryY=0;entryDx=0;entryDy=0;" edge="1" parent="1" target="HH4qCzkqOsVi2pg-7LeL-52">
          <mxGeometry width="50" height="50" relative="1" as="geometry">
            <mxPoint x="680" y="300" as="sourcePoint" />
            <mxPoint x="690" y="290" as="targetPoint" />
          </mxGeometry>
        </mxCell>
        <mxCell id="HH4qCzkqOsVi2pg-7LeL-116" value="Campaign data visualization" style="text;html=1;strokeColor=none;fillColor=none;align=center;verticalAlign=middle;whiteSpace=wrap;rounded=0;" vertex="1" parent="1">
          <mxGeometry x="680" y="305" width="60" height="30" as="geometry" />
        </mxCell>
        <mxCell id="HH4qCzkqOsVi2pg-7LeL-117" value="Target user data&amp;nbsp;&lt;br&gt;visualization" style="text;html=1;strokeColor=none;fillColor=none;align=center;verticalAlign=middle;whiteSpace=wrap;rounded=0;" vertex="1" parent="1">
          <mxGeometry x="680" y="495" width="70" height="30" as="geometry" />
        </mxCell>
        <mxCell id="HH4qCzkqOsVi2pg-7LeL-118" value="" style="endArrow=classic;html=1;rounded=1;strokeWidth=1;entryX=0.25;entryY=0;entryDx=0;entryDy=0;" edge="1" parent="1" target="HH4qCzkqOsVi2pg-7LeL-99">
          <mxGeometry width="50" height="50" relative="1" as="geometry">
            <mxPoint x="690" y="480" as="sourcePoint" />
            <mxPoint x="760" y="470" as="targetPoint" />
          </mxGeometry>
        </mxCell>
        <mxCell id="HH4qCzkqOsVi2pg-7LeL-119" value="" style="endArrow=none;dashed=1;html=1;strokeWidth=1;rounded=0;entryX=0.5;entryY=1;entryDx=0;entryDy=0;" edge="1" parent="1" source="HH4qCzkqOsVi2pg-7LeL-81" target="HH4qCzkqOsVi2pg-7LeL-23">
          <mxGeometry x="70" y="146" width="50" height="50" as="geometry">
            <mxPoint x="476" y="305" as="sourcePoint" />
            <mxPoint x="475" y="228" as="targetPoint" />
          </mxGeometry>
        </mxCell>
        <mxCell id="HH4qCzkqOsVi2pg-7LeL-120" value="" style="endArrow=none;dashed=1;html=1;strokeWidth=1;rounded=0;exitX=0.5;exitY=0;exitDx=0;exitDy=0;" edge="1" parent="1" source="HH4qCzkqOsVi2pg-7LeL-39">
          <mxGeometry x="92" y="146" width="50" height="50" as="geometry">
            <mxPoint x="368.25" y="305" as="sourcePoint" />
            <mxPoint x="263" y="220" as="targetPoint" />
          </mxGeometry>
        </mxCell>
        <mxCell id="HH4qCzkqOsVi2pg-7LeL-137" value="" style="endArrow=none;html=1;rounded=1;strokeWidth=1;" edge="1" parent="1">
          <mxGeometry width="50" height="50" relative="1" as="geometry">
            <mxPoint x="232" y="285" as="sourcePoint" />
            <mxPoint x="242" y="315" as="targetPoint" />
          </mxGeometry>
        </mxCell>
        <mxCell id="HH4qCzkqOsVi2pg-7LeL-139" value="" style="group" vertex="1" connectable="0" parent="1">
          <mxGeometry x="40" y="130" width="30" height="80" as="geometry" />
        </mxCell>
        <mxCell id="HH4qCzkqOsVi2pg-7LeL-133" value="" style="ellipse;whiteSpace=wrap;html=1;aspect=fixed;" vertex="1" parent="HH4qCzkqOsVi2pg-7LeL-139">
          <mxGeometry x="5" width="20" height="20" as="geometry" />
        </mxCell>
        <mxCell id="HH4qCzkqOsVi2pg-7LeL-134" value="" style="endArrow=none;html=1;rounded=1;strokeWidth=1;entryX=0.5;entryY=1;entryDx=0;entryDy=0;" edge="1" parent="HH4qCzkqOsVi2pg-7LeL-139" target="HH4qCzkqOsVi2pg-7LeL-133">
          <mxGeometry width="50" height="50" relative="1" as="geometry">
            <mxPoint x="15" y="50" as="sourcePoint" />
            <mxPoint x="50" y="30" as="targetPoint" />
          </mxGeometry>
        </mxCell>
        <mxCell id="HH4qCzkqOsVi2pg-7LeL-135" value="" style="endArrow=none;html=1;rounded=1;strokeWidth=1;" edge="1" parent="HH4qCzkqOsVi2pg-7LeL-139">
          <mxGeometry width="50" height="50" relative="1" as="geometry">
            <mxPoint y="30" as="sourcePoint" />
            <mxPoint x="30" y="30" as="targetPoint" />
          </mxGeometry>
        </mxCell>
        <mxCell id="HH4qCzkqOsVi2pg-7LeL-136" value="" style="endArrow=none;html=1;rounded=1;strokeWidth=1;" edge="1" parent="HH4qCzkqOsVi2pg-7LeL-139">
          <mxGeometry width="50" height="50" relative="1" as="geometry">
            <mxPoint y="80" as="sourcePoint" />
            <mxPoint x="14" y="50" as="targetPoint" />
          </mxGeometry>
        </mxCell>
        <mxCell id="HH4qCzkqOsVi2pg-7LeL-138" value="" style="endArrow=none;html=1;rounded=1;strokeWidth=1;" edge="1" parent="HH4qCzkqOsVi2pg-7LeL-139">
          <mxGeometry width="50" height="50" relative="1" as="geometry">
            <mxPoint x="15" y="50" as="sourcePoint" />
            <mxPoint x="30" y="80" as="targetPoint" />
          </mxGeometry>
        </mxCell>
        <mxCell id="HH4qCzkqOsVi2pg-7LeL-140" value="" style="group" vertex="1" connectable="0" parent="1">
          <mxGeometry x="110" y="130" width="30" height="80" as="geometry" />
        </mxCell>
        <mxCell id="HH4qCzkqOsVi2pg-7LeL-141" value="" style="ellipse;whiteSpace=wrap;html=1;aspect=fixed;" vertex="1" parent="HH4qCzkqOsVi2pg-7LeL-140">
          <mxGeometry x="5" width="20" height="20" as="geometry" />
        </mxCell>
        <mxCell id="HH4qCzkqOsVi2pg-7LeL-142" value="" style="endArrow=none;html=1;rounded=1;strokeWidth=1;entryX=0.5;entryY=1;entryDx=0;entryDy=0;" edge="1" parent="HH4qCzkqOsVi2pg-7LeL-140" target="HH4qCzkqOsVi2pg-7LeL-141">
          <mxGeometry width="50" height="50" relative="1" as="geometry">
            <mxPoint x="15" y="50" as="sourcePoint" />
            <mxPoint x="50" y="30" as="targetPoint" />
          </mxGeometry>
        </mxCell>
        <mxCell id="HH4qCzkqOsVi2pg-7LeL-143" value="" style="endArrow=none;html=1;rounded=1;strokeWidth=1;" edge="1" parent="HH4qCzkqOsVi2pg-7LeL-140">
          <mxGeometry width="50" height="50" relative="1" as="geometry">
            <mxPoint y="30" as="sourcePoint" />
            <mxPoint x="30" y="30" as="targetPoint" />
          </mxGeometry>
        </mxCell>
        <mxCell id="HH4qCzkqOsVi2pg-7LeL-144" value="" style="endArrow=none;html=1;rounded=1;strokeWidth=1;" edge="1" parent="HH4qCzkqOsVi2pg-7LeL-140">
          <mxGeometry width="50" height="50" relative="1" as="geometry">
            <mxPoint y="80" as="sourcePoint" />
            <mxPoint x="14" y="50" as="targetPoint" />
          </mxGeometry>
        </mxCell>
        <mxCell id="HH4qCzkqOsVi2pg-7LeL-145" value="" style="endArrow=none;html=1;rounded=1;strokeWidth=1;" edge="1" parent="HH4qCzkqOsVi2pg-7LeL-140">
          <mxGeometry width="50" height="50" relative="1" as="geometry">
            <mxPoint x="15" y="50" as="sourcePoint" />
            <mxPoint x="30" y="80" as="targetPoint" />
          </mxGeometry>
        </mxCell>
        <mxCell id="HH4qCzkqOsVi2pg-7LeL-146" value="Target user" style="text;html=1;strokeColor=none;fillColor=none;align=center;verticalAlign=middle;whiteSpace=wrap;rounded=0;" vertex="1" parent="1">
          <mxGeometry x="21" y="210" width="68" height="30" as="geometry" />
        </mxCell>
        <mxCell id="HH4qCzkqOsVi2pg-7LeL-147" value="System/Staff User" style="text;html=1;strokeColor=none;fillColor=none;align=center;verticalAlign=middle;whiteSpace=wrap;rounded=0;" vertex="1" parent="1">
          <mxGeometry x="96" y="217" width="60" height="30" as="geometry" />
        </mxCell>
        <mxCell id="HH4qCzkqOsVi2pg-7LeL-149" value="" style="endArrow=classic;html=1;rounded=0;strokeWidth=1;" edge="1" parent="1">
          <mxGeometry x="177.5" y="131" width="50" height="50" as="geometry">
            <mxPoint x="507.5" y="295" as="sourcePoint" />
            <mxPoint x="557.5" y="295" as="targetPoint" />
          </mxGeometry>
        </mxCell>
      </root>
    </mxGraphModel>
  </diagram>
</mxfile>
